<svg width="63" height="63" viewBox="0 0 63 63" fill="none" xmlns="http://www.w3.org/2000/svg">
<g clip-path="url(#clip0_15_21)">
<path d="M62.3934 18.4683C62.3721 18.4683 62.3624 18.4586 62.3546 18.4586C62.3325 18.4604 62.3112 18.4677 62.2926 18.48C23.2045 22.4155 4.83664 39.4095 0.507721 43.5912L1.08323 44.498H7.91377C25.6654 26.6456 49.6547 20.72 62.343 18.7726L62.3527 18.7823C62.3604 18.7823 62.3701 18.7609 62.3817 18.7609C62.4181 18.7562 62.4514 18.7385 62.4757 18.7111C62.4999 18.6836 62.5133 18.6483 62.5135 18.6117C62.5135 18.54 62.4612 18.4897 62.3914 18.4703L62.3934 18.4683ZM1.48628 27.6222L1.07354 28.3993L9.46009 34.5148C11.1592 33.5277 12.8933 32.6022 14.659 31.7399L9.03766 27.6222H1.48628ZM20.1274 35.7336C18.6485 36.8222 17.2041 37.957 15.7965 39.1363L23.1657 44.4941H30.8062L31.1299 43.7985L20.1274 35.7336Z" fill="#545454"/>
</g>
<defs>
<clipPath id="clip0_15_21">
<rect width="62.0077" height="62.0077" fill="white" transform="translate(0.50769 0.472565)"/>
</clipPath>
</defs>
</svg>
