<svg width="115" height="28" viewBox="0 0 115 28" fill="none" xmlns="http://www.w3.org/2000/svg">
<g clip-path="url(#clip0_15_18)">
<path d="M29.9683 13.5084C30.2903 15.0334 30.2903 15.1936 30.2903 15.3948C30.2903 18.0014 27.3597 19.4481 23.5073 19.4481C14.8008 19.4537 7.17453 14.3521 7.17453 10.9801C7.17406 10.5107 7.26977 10.0462 7.45577 9.61527L8.13708 7.92826C8.10587 8.04348 8.09207 8.16273 8.09614 8.28203C8.09614 9.99886 14.8551 15.6275 23.9116 15.6275C26.2408 15.6275 29.6108 15.1469 29.6108 12.3765C29.6177 12.1627 29.5983 11.9488 29.5529 11.7397L29.9683 13.5084ZM108.121 17.3684C108.121 19.5823 109.452 20.6583 111.88 20.6583C112.628 20.6397 113.371 20.5348 114.094 20.3457V17.778C113.632 17.9245 113.149 17.9973 112.664 17.9938C111.664 17.9938 111.294 17.6812 111.294 16.7409V12.8066H114.191V10.1626H111.294V6.81129L108.128 7.49638V10.1626H106.026V12.8066H108.121V17.3684ZM98.2527 17.428C98.2527 16.7427 98.9398 16.4094 99.9769 16.4094C100.611 16.4132 101.242 16.4917 101.857 16.6441V17.9753C101.251 18.3066 100.569 18.4752 99.8781 18.4649C98.8615 18.4649 98.2527 18.0739 98.2527 17.428ZM99.2208 20.6974C100.338 20.6974 101.239 20.4629 102.081 19.8949V20.5223H105.213V13.8829C105.213 11.3581 103.511 9.97283 100.671 9.97283C99.0849 9.97283 97.5171 10.3451 95.8304 11.1085L96.966 13.4396C98.18 12.9294 99.2004 12.6166 100.1 12.6166C101.403 12.6166 102.077 13.125 102.077 14.1639V14.6723C101.31 14.4737 100.52 14.3748 99.7275 14.3782C97.063 14.3782 95.4579 15.4951 95.4579 17.4932C95.4579 19.3141 96.9064 20.703 99.2173 20.703M82.0054 20.5281H85.3736V15.1565H91.0136V20.5226H94.3912V6.81485H91.0265V12.0824H85.3868V6.81485H82.0185L82.0054 20.5281ZM69.1841 15.3334C69.1841 13.8437 70.359 12.7078 71.9065 12.7078C72.7114 12.6916 73.4929 12.9787 74.0959 13.5122V17.1338C73.8038 17.4098 73.4599 17.6253 73.0841 17.7678C72.7084 17.9103 72.3081 17.9771 71.9065 17.9642C70.3796 17.9642 69.1841 16.8283 69.1841 15.3407M74.1388 20.5299H77.2725V6.12955L74.1072 6.81485V10.712C73.3014 10.2551 72.3895 10.0187 71.4632 10.0267C68.4488 10.0267 66.0787 12.3561 66.0787 15.3334C66.07 16.0319 66.2006 16.7252 66.4628 17.3727C66.725 18.0203 67.1136 18.6091 67.6058 19.1049C68.0981 19.6006 68.6841 19.9933 69.3298 20.26C69.9755 20.5268 70.6678 20.6623 71.3664 20.6585C72.3653 20.6632 73.3395 20.3481 74.1464 19.7591L74.1388 20.5299ZM59.7592 12.5645C60.7571 12.5645 61.5988 13.2107 61.9321 14.2088H57.6125C57.9251 13.1791 58.709 12.5645 59.7592 12.5645ZM54.4211 15.3574C54.4211 18.3738 56.888 20.7235 60.0589 20.7235C61.8017 20.7235 63.0753 20.2524 64.3879 19.1557L62.2915 17.2938C61.8017 17.804 61.0775 18.0777 60.2173 18.0777C59.6764 18.0929 59.1435 17.944 58.6888 17.6506C58.2341 17.3571 57.879 16.9328 57.6701 16.4336H65.0527V15.646C65.0527 12.3561 62.8406 9.98774 59.8244 9.98774C59.1153 9.97703 58.4113 10.1082 57.7537 10.3735C57.096 10.6389 56.4981 11.033 55.995 11.5328C55.4919 12.0326 55.0938 12.6279 54.8242 13.2837C54.5545 13.9396 54.4187 14.6427 54.4247 15.3518M48.96 9.69359C50.077 9.69359 50.7027 10.3974 50.7027 11.2406C50.7027 12.0842 50.0772 12.7879 48.96 12.7879H45.6292V9.69337L48.96 9.69359ZM42.2567 20.5223H45.6249V15.5287H48.1888L50.7752 20.5226H54.5455L51.5293 15.039C52.2958 14.7272 52.9515 14.1933 53.4121 13.5058C53.8726 12.8183 54.1169 12.0087 54.1136 11.1812C54.1136 8.71413 52.1754 6.81485 49.2726 6.81485H42.2567V20.5223Z" fill="black"/>
</g>
<defs>
<clipPath id="clip0_15_18">
<rect width="113.921" height="26.9228" fill="white" transform="translate(0.270508 0.182678)"/>
</clipPath>
</defs>
</svg>
