<svg width="57" height="57" viewBox="0 0 57 57" fill="none" xmlns="http://www.w3.org/2000/svg">
<path d="M5.24294 39.7372H9.13285V23.2402H5.24294M7.18789 21.0844C7.46877 21.0906 7.74806 21.0407 8.00937 20.9375C8.27067 20.8343 8.50873 20.6799 8.70956 20.4835C8.91039 20.287 9.06994 20.0524 9.17884 19.7934C9.28775 19.5344 9.34381 19.2563 9.34374 18.9754C9.34374 17.8037 8.40642 16.8664 7.18789 16.8664C6.90702 16.8602 6.62773 16.9101 6.36642 17.0133C6.10511 17.1165 5.86706 17.2708 5.66623 17.4673C5.4654 17.6637 5.30585 17.8984 5.19694 18.1573C5.08804 18.4163 5.03197 18.6944 5.03204 18.9754C5.03204 20.147 5.96937 21.0844 7.18789 21.0844ZM22.0211 16.9133C15.4832 16.9133 11.359 21.3656 11.359 28.4892C11.359 35.6598 15.4832 40.1121 22.0211 40.1121C28.5589 40.1121 32.6832 35.6598 32.6832 28.4892C32.6832 21.3656 28.5589 16.9133 22.0211 16.9133ZM22.0211 20.2876C26.0281 20.2876 28.5824 23.498 28.5824 28.4892C28.5824 33.5274 26.0281 36.6908 22.0211 36.6908C18.014 36.6908 15.4832 33.5274 15.4832 28.4892C15.4832 23.498 18.014 20.2876 22.0211 20.2876ZM34.3235 33.4336C34.4875 37.5579 37.8385 40.1121 43.0406 40.1121C48.4771 40.1121 51.8984 37.4407 51.8984 33.1759C51.8984 29.8249 49.9768 27.9503 45.4074 26.8958L42.8297 26.31C40.0646 25.6538 38.9398 24.7868 38.9398 23.2871C38.9398 21.4593 40.6504 20.1705 43.1812 20.1705C45.7589 20.1705 47.5163 21.4593 47.7038 23.5448H51.5234C51.4297 19.5846 48.1725 16.9133 43.2047 16.9133C38.3306 16.9133 34.8624 19.6081 34.8624 23.5917C34.8624 26.8021 36.8074 28.7939 40.9551 29.7312L43.8608 30.4108C46.6962 31.0903 47.8444 32.0042 47.8444 33.6445C47.8444 35.5192 45.9698 36.8549 43.2515 36.8549C40.5333 36.8549 38.4477 35.5192 38.2134 33.4336H34.3235Z" fill="#545454"/>
</svg>
