<svg width="22" height="22" viewBox="0 0 22 22" fill="none" xmlns="http://www.w3.org/2000/svg">
<path fill-rule="evenodd" clip-rule="evenodd" d="M17.4715 5.90331C17.729 6.16113 17.8737 6.5106 17.8737 6.87498C17.8737 7.23936 17.729 7.58883 17.4715 7.84665L9.22155 16.0966C8.96374 16.3541 8.61426 16.4988 8.24988 16.4988C7.88551 16.4988 7.53603 16.3541 7.27821 16.0966L4.52821 13.3466C4.28533 13.086 4.15311 12.7412 4.15939 12.385C4.16568 12.0288 4.30998 11.6889 4.56191 11.437C4.81383 11.1851 5.1537 11.0408 5.50992 11.0345C5.86614 11.0282 6.21089 11.1604 6.47155 11.4033L8.24988 13.1816L15.5282 5.90331C15.786 5.64582 16.1355 5.50119 16.4999 5.50119C16.8643 5.50119 17.2137 5.64582 17.4715 5.90331Z" fill="#545454"/>
</svg>
