<svg width="28" height="28" viewBox="0 0 28 28" fill="none" xmlns="http://www.w3.org/2000/svg">
<path fill-rule="evenodd" clip-rule="evenodd" d="M22.2365 7.51332C22.5642 7.84145 22.7483 8.28623 22.7483 8.74999C22.7483 9.21374 22.5642 9.65853 22.2365 9.98665L11.7365 20.4867C11.4083 20.8144 10.9636 20.9984 10.4998 20.9984C10.0361 20.9984 9.59126 20.8144 9.26314 20.4867L5.76314 16.9867C5.45402 16.6549 5.28573 16.2161 5.29373 15.7628C5.30173 15.3094 5.48539 14.8768 5.80602 14.5562C6.12665 14.2356 6.55922 14.0519 7.01259 14.0439C7.46595 14.0359 7.90473 14.2042 8.23647 14.5133L10.4998 16.7767L19.7631 7.51332C20.0913 7.1856 20.5361 7.00153 20.9998 7.00153C21.4636 7.00153 21.9083 7.1856 22.2365 7.51332Z" fill="#545454"/>
</svg>
