<svg width="68" height="68" viewBox="0 0 68 68" fill="none" xmlns="http://www.w3.org/2000/svg">
<g clip-path="url(#clip0_15_12)">
<path d="M46.9747 24.9481C46.9747 24.9481 45.7174 25.4511 44.2561 27.0604C42.7921 28.6725 41.9428 30.483 42.5714 30.9635C42.8145 31.1479 43.3733 31.1843 44.3875 30.265C45.3208 29.4537 46.0533 28.4371 46.5276 27.2951C47.1814 25.7025 46.9747 24.9677 46.9747 24.9481ZM54.9738 27.8483C53.3505 27.0129 52.163 25.9931 50.9281 25.3617C49.7491 24.7582 48.9863 24.5039 48.0336 24.6324C47.9011 24.6561 47.7704 24.6888 47.6424 24.7302C47.6424 24.7302 48.1342 26.4066 46.1812 29.2201C44.2031 32.0755 42.4093 32.056 41.8981 31.2709C41.3644 30.4439 42.0545 28.7563 43.2056 27.256C44.4126 25.6858 46.5304 24.3838 46.5304 24.3838C46.5304 24.3838 45.8571 23.9703 44.1975 24.9146C42.577 25.8254 39.7914 28.0075 37.207 31.6844C34.6198 35.3612 34.1057 37.384 33.7369 38.9766C33.3681 40.5691 33.7034 42.2735 35.4692 42.2735C37.2349 42.2735 39.2913 39.5801 39.8724 38.6441C40.9509 36.9007 41.6522 34.2269 40.1854 34.5929C39.4617 34.7745 38.8778 35.5736 38.509 36.3447C38.2761 36.8397 38.0981 37.3588 37.9781 37.8925C37.4647 38.1036 36.9825 38.3837 36.5448 38.7251C36.0587 39.086 35.6044 39.488 35.187 39.9265C35.187 39.9265 35.1926 38.6525 36.2068 36.5906C37.2238 34.5314 39.0845 33.5898 40.1407 33.5004C41.0906 33.425 42.3283 34.2325 41.2806 37.208C40.2329 40.1836 37.1372 43.8017 33.8878 43.8464C30.8899 43.8884 28.9257 40.0606 33.0999 33.3831C37.7211 25.9987 43.1414 23.7356 44.8988 23.4841C46.6589 23.2327 47.2317 24.0066 47.2317 24.0066C48.2906 23.5727 49.434 23.3845 50.5761 23.4562C52.7274 23.6015 54.387 25.1214 56.5831 26.1915C56.0103 26.7363 55.4655 27.309 54.9765 27.8455M64.6269 25.3589C63.1377 26.3144 61.0785 27.1805 59.0976 26.9961C58.5975 27.513 58.0611 28.1137 57.5246 28.7675C60.9556 29.4464 63.9647 27.3174 65.5628 25.5069C66.1458 24.8572 66.6469 24.1385 67.0548 23.3668C66.3266 24.1247 65.5117 24.7915 64.6269 25.3589ZM60.056 35.0343C60.0823 34.9892 60.1038 34.9414 60.1202 34.8918C60.1102 34.8129 60.0734 34.7399 60.0159 34.6849C59.9584 34.63 59.8838 34.5965 59.8045 34.5901C59.4776 34.5761 59.0306 34.6376 57.8627 35.9312C56.8922 37.001 56.0571 38.1862 55.3761 39.4599C54.7055 40.6837 54.4345 41.5945 54.8173 41.8292C54.943 41.8946 55.0889 41.9096 55.2252 41.8711C55.485 41.8097 55.7812 41.5638 56.231 41.0469C56.4406 40.801 56.6725 40.4546 56.9519 40.0718C57.7258 39.0213 59.6704 35.7049 60.056 35.0343ZM47.905 36.4425C48.1006 35.934 48.3493 34.9309 47.8324 34.537C47.2764 34.1179 45.8627 35.0986 45.8543 36.1044C45.8459 37.1354 46.8517 37.5992 47.092 37.6662C47.2317 37.7025 47.2764 37.6942 47.3435 37.5852C47.5569 37.2178 47.7445 36.8359 47.905 36.4425ZM46.835 38.3144C46.4844 38.1525 46.1573 37.9439 45.8627 37.6942C45.5679 37.4463 45.3216 37.146 45.1362 36.8085C45.1139 36.775 45.0943 36.8001 45.072 36.8308C45.0524 36.8588 44.963 36.9398 44.2086 38.0434C43.4543 39.1498 42.2976 41.4409 43.3425 41.8292C44.0159 42.0807 45.1334 40.9044 45.7453 40.1249C46.1596 39.5802 46.5349 39.0069 46.8685 38.4094C46.902 38.3452 46.8685 38.3284 46.835 38.3144ZM58.7316 40.9603C58.4466 41.4157 58.1225 42.2902 59.0585 41.7454C60.204 41.086 61.8357 38.6078 61.8357 38.6078H62.5761C61.9026 39.6439 61.1527 40.6282 60.3326 41.5526C59.1731 42.8378 57.7565 44.0085 56.7563 43.8912C55.594 43.757 55.9572 42.226 55.9572 42.226C55.9572 42.226 54.292 44.0001 53.1353 43.8744C51.5791 43.7012 52.0541 41.7761 52.0541 41.7761C52.0541 41.7761 50.2939 43.9386 49.0925 43.8716C47.2121 43.7598 47.6843 41.4716 48.2096 39.8595C48.489 38.9989 48.7488 38.3228 48.7488 38.3228C48.7488 38.3228 48.5616 38.3703 48.1621 38.429C47.9498 38.4597 47.5698 38.4821 47.5698 38.4821C47.5698 38.4821 46.7875 39.8651 46.1588 40.6949C45.533 41.5247 42.8676 44.3885 41.2974 43.8157C39.8501 43.2849 40.3306 41.0665 41.1744 39.3035C42.4038 36.733 45.8683 33.0366 47.8687 33.5256C49.939 34.0285 47.9162 37.8059 47.9162 37.8059C47.9162 37.8059 47.9162 37.8199 47.9358 37.8311C47.9777 37.845 48.0867 37.859 48.3353 37.8087C48.5938 37.7566 48.8472 37.6818 49.0925 37.5852C49.0925 37.5852 51.1768 33.2238 53.4762 30.3684C55.7756 27.5186 60.3633 22.6012 62.1654 23.7915C62.6012 24.0848 62.4057 25.0906 61.8133 26.3116C61.5463 26.3983 61.2749 26.4711 61.0003 26.5295C61.397 25.8087 61.6597 25.2024 61.7379 24.7777C62.0089 23.3025 58.5668 26.4122 56.1081 29.751C54.6263 31.7647 53.3097 33.8951 52.1714 36.1212C52.6155 35.8504 53.0394 35.5479 53.4399 35.2159C54.5373 34.3067 55.5804 33.3336 56.5635 32.3018C57.5095 31.3331 58.3967 30.3087 59.2206 29.2341C59.4826 29.2213 59.7438 29.1943 60.0029 29.153C59.104 30.3725 58.1239 31.53 57.0692 32.6175C56.0913 33.6094 55.0296 34.6767 54.1048 35.4534C53.281 36.1532 52.412 36.7981 51.5037 37.384C51.5037 37.384 49.3523 41.723 50.523 41.9996C51.2103 42.1673 52.5682 40.0718 52.5682 40.0718C52.5682 40.0718 54.3423 37.3701 55.4096 36.1491C56.8681 34.4923 58.1197 33.534 59.377 33.5172C60.1062 33.5032 60.5365 34.28 60.5365 34.28L60.8802 33.7491H62.9952C62.9952 33.7491 59.0445 40.449 58.7288 40.9547M64.6269 25.3644C63.1377 26.3172 61.0785 27.1833 59.0976 26.9989C58.5947 27.5158 58.0611 28.1165 57.5218 28.7703C60.9556 29.4492 63.9619 27.323 65.5628 25.5097C66.146 24.8592 66.6471 24.1395 67.0548 23.3668C66.3266 24.1247 65.5117 24.7915 64.6269 25.3589M34.9271 28.6501H32.9155L31.7784 30.4886H33.79L34.9271 28.6501ZM25.3998 35.012C26.2575 33.8385 28.6184 29.7286 28.6184 29.7286C28.6085 29.6501 28.5721 29.5774 28.5151 29.5225C28.4582 29.4677 28.3842 29.4339 28.3055 29.4269C27.9786 29.4101 27.4338 29.5218 26.3497 30.8769C25.2684 32.232 24.4275 33.3077 23.8156 34.4308C23.145 35.6546 22.8489 36.5179 23.2372 36.7526C23.3618 36.815 23.5048 36.8299 23.6396 36.7945C23.891 36.733 24.2207 36.4788 24.6705 35.9619C24.9267 35.6548 25.1708 35.3379 25.4026 35.012M14.6095 29.452C14.0535 29.0329 12.6398 30.0136 12.6314 31.0166C12.623 32.0476 13.9054 32.3633 14.0703 32.3689C14.1186 32.3732 14.1671 32.3635 14.21 32.3409C14.2395 32.3233 14.263 32.2969 14.277 32.2655C14.4284 31.97 14.5646 31.6669 14.685 31.3575C14.8805 30.8462 15.1264 29.8459 14.6095 29.452ZM13.7713 33.0003C13.3881 32.8801 13.0219 32.711 12.6817 32.4974C12.3512 32.2823 12.0826 31.9847 11.9022 31.6341C11.8826 31.6005 11.8603 31.6257 11.8407 31.6564C11.8211 31.6844 11.7094 31.8269 10.9522 32.9361C10.1979 34.0481 9.07469 36.3167 10.1252 36.7079C10.7958 36.9594 11.9245 35.7747 12.5392 34.998C12.9985 34.3883 13.4229 33.753 13.8104 33.0953C13.8356 33.0283 13.8104 33.0115 13.7713 33.0003ZM30.1998 33.682H30.9346C30.9346 33.682 27.2438 39.0241 25.1567 38.7754C23.9944 38.6385 24.3381 37.2024 24.3381 37.2024C24.3381 37.2024 22.7036 39.1163 21.2004 38.7279C19.8398 38.3787 20.7199 36.1128 20.7199 36.1128C20.5634 36.1743 17.6158 39.4963 15.5427 38.7C13.3746 37.8618 14.5005 35.079 14.9141 34.2436C15.2633 33.5368 15.6489 32.8494 15.6489 32.8494C15.6489 32.8494 15.3164 32.9444 15.104 32.9919L14.5844 33.1037C14.5844 33.1037 13.559 34.7689 12.9331 35.6015C12.3045 36.4313 9.64186 39.2895 8.07166 38.7223C6.50146 38.1524 6.88982 35.9563 7.77271 34.2101C9.20321 31.3826 12.5951 27.9069 14.6402 28.4322C16.705 28.9603 14.9951 32.3102 14.9951 32.3102C14.9951 32.3102 15.4058 32.3633 16.3921 31.69C17.8086 30.7232 19.6777 28.1221 21.7034 28.4294C22.6589 28.5719 23.5474 29.547 22.332 31.4022C21.9436 31.9973 21.2926 32.5281 20.7953 32.0029C20.4852 31.6732 20.7562 31.0809 21.0831 30.6702C21.2099 30.504 21.3756 30.3715 21.5656 30.2843C21.7556 30.1971 21.9641 30.1578 22.1727 30.17C22.1727 30.17 22.508 29.4073 21.6559 29.4185C20.9658 29.4324 19.2223 31.039 18.2389 32.6595C17.3364 34.1486 15.9674 36.6855 17.3392 37.2387C18.5993 37.7472 20.9965 34.903 22.1057 33.411C23.2149 31.9219 25.7434 28.544 27.8668 28.4099C28.596 28.3624 29.0319 29.0273 29.0319 29.0273L29.2778 28.639H31.3984C31.3984 28.639 27.403 35.3081 27.0901 35.811C26.8442 36.205 26.5201 37.0963 27.417 36.5961C28.3166 36.0988 30.1998 33.682 30.1998 33.682ZM29.0431 44.3661C27.4812 43.2846 25.6107 42.7385 23.7122 42.8099C23.1989 42.824 22.6962 42.9589 22.2448 43.2036C21.7934 43.4482 21.4059 43.7958 21.1138 44.218C20.3036 42.8071 18.7054 41.941 16.2328 41.9605C12.2374 42.0052 8.27283 43.8492 5.13522 43.8464C2.12613 43.8464 -0.0699157 41.9549 0.00272708 38.5938C0.134043 32.7014 5.11566 27.3929 8.83162 25.004C10.9746 23.635 12.7683 23.2243 13.939 23.3556C14.7939 23.4506 15.8221 24.4396 15.1739 25.8953C14.2212 28.0215 12.9052 27.8483 12.9527 26.8313C12.9806 26.1691 13.4221 25.7528 13.7518 25.5209C13.9908 25.3939 14.2578 25.3286 14.5285 25.3309C14.7185 25.1717 14.8554 24.0066 13.3299 24.3894C11.8044 24.7721 9.9492 26.2781 8.18901 28.2199C6.42882 30.1645 3.69074 33.8385 3.01461 37.697C2.69889 39.4851 2.90564 42.7484 7.14966 42.7121C10.7455 42.6842 16.0484 40.3121 20.9211 40.3624C22.6176 40.3557 24.2838 40.8116 25.7406 41.6811C27.0007 42.4579 28.5122 43.5922 29.0487 44.3661" fill="#545454"/>
</g>
<defs>
<clipPath id="clip0_15_12">
<rect width="67.0549" height="67.0549" fill="white" transform="translate(0 0.322266)"/>
</clipPath>
</defs>
</svg>
