<svg width="68" height="68" viewBox="0 0 68 68" fill="none" xmlns="http://www.w3.org/2000/svg">
<g clip-path="url(#clip0_17_25)">
<path d="M18.3989 44.0968L14.5265 47.9664C17.1668 50.6067 18.0469 51.8388 18.2229 53.0709C18.3989 52.8949 21.9193 49.9026 21.9193 48.8465C21.9193 47.2623 20.8632 46.7343 18.3989 44.0968ZM9.59796 37.2292H7.48853C7.48853 37.2292 9.60075 38.4614 9.60075 41.2805V50.7799C9.60075 56.9406 14.7025 62.7492 20.8632 62.7492H25.9677C29.1361 62.7492 30.1922 62.0451 31.9524 60.2849L33.8858 58.3487C34.9419 57.1194 36.1768 56.2393 36.1768 52.8949V49.7266C36.1768 47.0863 34.5899 45.8542 33.8858 45.1501L32.1256 43.3899V49.7266C32.1256 49.7266 33.3577 51.1347 34.0618 51.4868C36.7021 53.599 34.5927 57.2926 32.1284 57.2926H20.6872C15.4066 57.1166 11.1821 52.7189 11.0061 47.4383V42.3338C11.0061 37.2292 9.60075 37.2292 9.60075 37.2292M26.141 44.094L22.2713 47.9664C24.9116 50.6067 25.7917 51.8388 25.9677 53.0709C26.1437 52.8949 29.6641 49.9026 29.6641 48.8465C29.6641 47.2623 28.608 46.5555 26.1437 44.0968M34.0618 0.622864L31.4243 3.26315C30.3682 4.31926 30.7202 6.43149 32.8325 8.54372V13.8243C32.8325 14.3496 32.3016 14.8776 32.3016 14.8776C32.3016 14.8776 29.1361 12.0613 26.3226 12.0613H22.0953C19.455 12.0613 17.3456 14.5256 16.9908 14.7016C15.5826 16.1097 15.5826 18.7528 16.6387 19.9822L19.631 22.9745C19.631 22.9745 18.927 18.2248 19.631 15.0536C19.8071 14.3496 20.6872 13.4695 21.5673 13.4695L28.432 18.75L20.5111 27.0201C20.1591 27.375 19.103 28.079 18.0469 28.079C16.8175 28.079 16.2867 27.375 15.7586 26.6709V30.5433C15.7586 31.7726 17.5188 33.1836 19.103 33.1836H29.6641C30.3682 33.1836 31.2483 33.0076 31.9524 32.3035L35.4728 28.7831C35.998 28.2523 36.174 27.551 36.174 26.6709V22.6224C36.174 18.75 33.1845 15.7577 33.1845 15.7577C33.1845 15.7577 33.8858 15.2296 33.8858 13.6455V9.59983C33.8858 9.59983 35.1179 10.8292 35.2939 11.36L37.585 9.06898C38.6383 8.01566 36.8781 6.07945 36.174 5.19936C34.0618 2.90832 34.0618 0.622864 34.0618 0.622864ZM20.866 28.4311C21.9221 27.9002 22.0981 27.551 22.9782 26.4949L29.6669 19.4541C29.6669 19.4541 33.3605 23.3265 34.5927 25.4388C35.1235 26.4949 35.8248 28.4283 32.6592 28.4283H20.866M11.8834 20.337H9.95C11.1793 21.0411 12.0594 23.1533 12.0594 24.3854V32.1303C12.0594 34.2397 13.6436 41.8085 20.5083 41.8085H40.3957V54.4819C40.3957 56.5913 39.6916 57.8235 39.1664 58.3515L36.1712 61.1678H37.5794L43.036 56.2421C44.0921 55.01 45.3242 53.7778 45.3242 49.9054V41.8057L47.6125 39.5175L51.4849 35.8211C51.4849 38.9894 53.0691 40.3976 54.4744 40.3976C55.2569 40.3476 56.0002 40.0379 56.5867 39.5175L60.107 36.1731C61.6912 34.5889 62.5713 29.6632 58.6989 29.6632C56.2346 29.6632 53.4183 33.1836 53.2451 33.5356C52.365 33.0048 51.6609 31.7754 51.6609 31.7754V34.765C51.3089 35.2958 49.7247 36.5252 48.4926 36.5252H45.3242V33.5356C45.3242 32.1275 45.8523 30.5433 46.5536 29.8392L49.5487 27.0229H48.1405L42.1559 32.4795C41.0998 33.7089 40.3957 35.9999 40.3957 36.5252H17.8709C15.0545 36.5252 13.2944 33.7116 13.2944 31.4234V25.612C13.2944 20.8623 12.065 20.3342 11.8862 20.3342M57.4695 37.2292C56.9415 37.2292 56.4134 37.0532 55.7094 36.5252C55.0081 35.9971 53.7759 34.2369 53.7759 34.2369C54.128 33.8877 55.1841 33.5356 56.0614 33.5356C56.7655 33.5356 57.4695 33.7116 57.6456 34.0637C58.8777 35.6451 58.7017 37.2292 57.4695 37.2292ZM48.1433 0.622864L42.1559 6.07945C41.8039 6.43149 40.3957 8.54372 40.3957 11.008V26.6709C40.3957 27.727 39.6916 29.3112 39.1664 29.8392L36.1712 32.6555H37.5794L43.212 27.551C43.9161 26.8469 45.3242 25.0867 45.3242 22.0944V7.13557C45.3242 4.84453 46.3803 3.61519 46.9084 3.08434L49.5515 0.622864H48.1433ZM49.0234 40.7496V46.9103L51.1357 49.1985C52.8958 50.9587 52.7198 54.3031 47.4393 59.4048C45.5614 61.4175 42.972 62.6175 40.2225 62.7492H30.7202L36.3501 67.6777H40.2225C44.0949 67.6777 47.6153 66.0936 49.9035 63.6293C52.0158 61.3411 53.2479 58.3487 53.0719 55.1832V47.0863C53.0719 44.27 51.3117 42.6858 50.9596 42.3366C50.6076 42.3366 49.0234 40.7496 49.0234 40.7496Z" fill="#545454"/>
</g>
<defs>
<clipPath id="clip0_17_25">
<rect width="67.0549" height="67.0549" fill="white" transform="translate(0.945068 0.622864)"/>
</clipPath>
</defs>
</svg>
