<svg width="72" height="72" viewBox="0 0 72 72" fill="none" xmlns="http://www.w3.org/2000/svg">
<g clip-path="url(#clip0_15_23)">
<path d="M0.574188 24.1306V47.5435H7.96807V39.0878H13.1075L15.1032 33.9722H7.96807V29.2194H16.6528L18.5473 24.1306H0.574188ZM20.8107 24.1306L20.7988 47.5435H28.1064V24.1306H20.8107ZM33.1537 24.1306V47.5435H40.5416V39.0878H45.6751L47.6886 33.9722H40.5416V29.2194H49.2322L51.1357 24.1306H33.1537ZM55.9301 24.1306L47.5131 47.5435H54.5769L55.487 44.3968H63.7226L64.6743 47.5435H71.9552L63.5173 24.1306H55.9301ZM59.6033 30.1474L62.521 39.8939H56.7897L59.6033 30.1474Z" fill="#545454"/>
</g>
<defs>
<clipPath id="clip0_15_23">
<rect width="71.381" height="71.381" fill="white" transform="translate(0.574219 0.146454)"/>
</clipPath>
</defs>
</svg>
